<svg width="57" height="60" viewBox="0 0 57 60" fill="none" xmlns="http://www.w3.org/2000/svg">
<path d="M35.433 29.2739C38.5376 27.7134 41.025 25.1511 42.4928 22.0014C43.9605 18.8518 44.3227 15.2992 43.5208 11.9181C42.7189 8.53714 40.7997 5.52555 38.0739 3.37058C35.348 1.21561 31.9748 0.0433044 28.5 0.0433044C25.0252 0.0433044 21.652 1.21561 18.9261 3.37058C16.2002 5.52555 14.2811 8.53714 13.4792 11.9181C12.6773 15.2992 13.0395 18.8518 14.5072 22.0014C15.9749 25.1511 18.4623 27.7134 21.567 29.2739C13.8525 30.8486 6.91432 35.0289 1.91697 41.1133C1.01277 42.2205 0.533678 43.6141 0.565987 45.0432C0.598296 46.4723 1.13989 47.8429 2.09319 48.908C5.43212 52.5973 9.50703 55.546 14.0553 57.564C18.6035 59.5821 23.5241 60.6247 28.5 60.6247C33.4758 60.6247 38.3965 59.5821 42.9447 57.564C47.4929 55.546 51.5679 52.5973 54.9068 48.908C55.8601 47.8429 56.4017 46.4723 56.434 45.0432C56.4663 43.6141 55.9872 42.2205 55.083 41.1133C50.0857 35.0289 43.1475 30.8486 35.433 29.2739Z" fill="black"/>
</svg>
