<svg width="34" height="33" viewBox="0 0 34 33" fill="none" xmlns="http://www.w3.org/2000/svg">
<path d="M32.9579 29.8554L26.7266 23.6424C28.737 21.081 29.8279 17.9181 29.8239 14.662C29.8239 11.7621 28.964 8.92735 27.3529 6.51621C25.7418 4.10507 23.452 2.22581 20.7728 1.11608C18.0937 0.00635274 15.1457 -0.284003 12.3015 0.281732C9.45741 0.847466 6.8449 2.24388 4.79439 4.29439C2.74388 6.3449 1.34747 8.95741 0.781732 11.8015C0.215997 14.6457 0.506353 17.5937 1.61608 20.2728C2.72581 22.952 4.60507 25.2418 7.01621 26.8529C9.42735 28.464 12.2621 29.3239 15.162 29.3239C18.4181 29.3279 21.581 28.237 24.1424 26.2266L30.3554 32.4579C30.5258 32.6297 30.7285 32.766 30.9518 32.8591C31.1751 32.9521 31.4147 33 31.6566 33C31.8986 33 32.1381 32.9521 32.3615 32.8591C32.5848 32.766 32.7875 32.6297 32.9579 32.4579C33.1297 32.2875 33.266 32.0848 33.3591 31.8615C33.4521 31.6381 33.5 31.3986 33.5 31.1566C33.5 30.9147 33.4521 30.6751 33.3591 30.4518C33.266 30.2285 33.1297 30.0258 32.9579 29.8554ZM4.16549 14.662C4.16549 12.4871 4.81042 10.361 6.01873 8.55265C7.22704 6.74429 8.94445 5.33484 10.9538 4.50255C12.9631 3.67025 15.1741 3.45249 17.3073 3.87679C19.4404 4.30109 21.3997 5.3484 22.9376 6.88628C24.4755 8.42416 25.5228 10.3835 25.9471 12.5166C26.3714 14.6498 26.1537 16.8608 25.3214 18.8701C24.4891 20.8795 23.0796 22.5969 21.2713 23.8052C19.4629 25.0135 17.3368 25.6584 15.162 25.6584C12.2455 25.6584 9.44852 24.4999 7.38628 22.4376C5.32404 20.3754 4.16549 17.5784 4.16549 14.662Z" fill="black"/>
</svg>
