<svg width="86" height="86" viewBox="0 0 86 86" fill="none" xmlns="http://www.w3.org/2000/svg">
<path d="M62.1365 78.5536C61.1668 78.5536 60.1911 78.3194 59.2926 77.8478L43.0831 69.322L26.7104 77.8449C25.7031 78.3804 24.5651 78.6208 23.4273 78.5385C22.2894 78.4561 21.1979 78.0543 20.2782 77.3793C19.3525 76.7131 18.6335 75.7992 18.2039 74.7427C17.7743 73.6862 17.6514 72.5299 17.8495 71.4067L20.9455 53.3586L7.78154 40.42C6.96083 39.6272 6.38048 38.6189 6.10717 37.5109C5.83386 36.403 5.87869 35.2405 6.23651 34.1569C6.58571 33.0716 7.23349 32.1065 8.10568 31.3723C8.97787 30.638 10.0392 30.1642 11.1682 30.0052L29.2875 27.3718L37.5257 10.8538C38.5636 8.75425 40.6602 7.45239 43.003 7.45239C45.3458 7.45239 47.4424 8.75425 48.4803 10.8538L56.5851 27.2739L74.8378 30.0052C75.9668 30.1642 77.0281 30.638 77.9003 31.3723C78.7725 32.1065 79.4203 33.0716 79.7695 34.1569C80.1259 35.2406 80.17 36.4028 79.8967 37.5104C79.6235 38.6181 79.044 39.6264 78.2244 40.42L65.1109 53.2014L68.1565 71.4097C68.3528 72.5328 68.2291 73.6885 67.7996 74.7447C67.3701 75.8008 66.6521 76.7149 65.7277 77.3823C64.6835 78.1405 63.427 78.5504 62.1365 78.5536ZM11.9184 36.1734L25.029 48.9548C26.4673 50.3605 27.1256 52.377 26.7875 54.358L23.6945 72.4091L25.3315 75.2204L23.9495 72.5959L40.1561 64.073C41.0327 63.6125 42.008 63.3716 42.9982 63.3711C43.9884 63.3706 44.9639 63.6104 45.841 64.07L62.0505 72.5959L62.3055 72.4091L59.2095 54.3609C59.0432 53.385 59.116 52.3833 59.4217 51.4417C59.7275 50.5001 60.2571 49.6468 60.9651 48.9548L74.0786 36.1734L73.9808 35.868L55.8615 33.2346C54.8816 33.0912 53.9512 32.7121 53.1501 32.13C52.349 31.5479 51.7011 30.7801 51.262 29.8925L43.1572 13.4724C43.1335 13.4249 43.1068 13.3775 42.9971 13.3775L34.7322 29.8925C34.2944 30.7799 33.6477 31.5478 32.8475 32.13C32.0473 32.7121 31.1177 33.0912 30.1386 33.2346L12.0133 35.868L9.84554 38.2938L11.9184 36.1734Z" fill="black"/>
</svg>
